<?xml version="1.0" encoding="utf-8"?>
<!-- Generator: Adobe Illustrator 18.0.0, SVG Export Plug-In . SVG Version: 6.00 Build 0)  -->
<!DOCTYPE svg PUBLIC "-//W3C//DTD SVG 1.1//EN" "http://www.w3.org/Graphics/SVG/1.1/DTD/svg11.dtd">
<svg version="1.1" id="Layer_1" xmlns="http://www.w3.org/2000/svg" xmlns:xlink="http://www.w3.org/1999/xlink" x="0px" y="0px"
	 viewBox="0 0 472.8 135.2" enable-background="new 0 0 472.8 135.2" xml:space="preserve">
<path fill="#005DA9" d="M308.7,23.2l-10-0.6l-0.3,4.9c-3.5-2.3-7.7-3.6-12.2-3.6c-5.7,0-11,2.1-14.9,5.6c-3.9,3.5-6.4,8.5-6.4,14.1
	c0,5.6,2.5,10.6,6.4,14.1c3.9,3.5,9.2,5.6,14.9,5.6c3.7,0,7.3-0.9,10.4-2.5l-0.2,4.1l10,0.6L308.7,23.2 M294.4,50.4
	c-2,1.8-4.9,3-8.2,3c-3.3,0-6.2-1.2-8.2-3c-2-1.8-3.1-4.2-3.1-6.7c0-2.5,1.1-4.9,3.1-6.7c2-1.8,4.9-3,8.2-3c3.3,0,6.2,1.2,8.2,3
	c2,1.8,3.1,4.2,3.1,6.7C297.5,46.3,296.4,48.6,294.4,50.4z M254.4,23.6c-3.9-3.5-9.2-5.7-15-5.7c-5,0-9.7,1.6-13.4,4.4l-1.8-16
	l-9.9,1.1l6.3,56.6l9.9-1.1l-0.8-7.2c2.9,1.4,6.2,2.2,9.7,2.2c5.8,0,11.1-2.1,15-5.7c3.9-3.5,6.5-8.6,6.5-14.3
	C260.9,32.2,258.3,27.1,254.4,23.6z M247.7,44.8c-2,1.9-5,3.1-8.3,3.1c-3.3,0-6.2-1.2-8.3-3.1c-2.1-1.9-3.2-4.3-3.2-6.9
	c0-2.6,1.1-5,3.2-6.9c2-1.9,5-3.1,8.3-3.1c3.3,0,6.3,1.2,8.3,3.1c2.1,1.9,3.2,4.3,3.2,6.9C250.9,40.5,249.8,42.9,247.7,44.8z
	 M394.7,17.4c3.2-0.3,5.5-2.8,5.3-5.7c-0.2-2.9-3-5-6.1-4.7c-3.2,0.3-5.5,2.8-5.3,5.6C388.8,15.5,391.6,17.6,394.7,17.4z M399.6,21
	l-10,0.1l0.6,38.5l10-0.1L399.6,21z M369.7,32.3l11.6-11.4l-7-7.1l-21.5,21.2l1-34.7l-10-0.3L342,59.4l20.4-20.1l12.2,15.6l7.8-6.2
	L369.7,32.3z M439.7,21.7L439,42.5l-27.1-28l-1.6,44.7l10,0.3l0.8-21.2l27.2,28.1l1.5-44.3L439.7,21.7z M319.4,65.2l-3.9-6.5l8.1-5
	c0,0,3.5-1.8,1.5-5.9c-3.4-7.1-7.8-15.2-7.8-15.2s-3.9-8.4,2.7-12.4l12.5-7.7l3.6,6.6l-8.2,5.3c-1.6,1.4-2.7,2.8-1.6,4.8
	c2.6,4.8,7.7,15.2,7.7,15.2s5.6,8.6-1.7,12.8L319.4,65.2z M465.4,85l1.9,3c1.1,0.4,1.5,0.3,1.5,0.1l-1.9-3.1c1.1-0.1,2-0.7,2-2.3
	c0-1.8-1-2.3-2.9-2.3h-2.6l-0.4,7.4c1.1,0.6,1.3,0.4,1.3,0V85H465.4z M464.1,83.8v-2.3h1.6c0.8,0,1.8,0.1,1.8,1.1
	c0,1.2-0.9,1.2-1.9,1.2H464.1z M465.8,91.4c3.9,0,7.1-3.2,7.1-7.1c0-3.9-3.2-7.1-7.1-7.1c-3.9,0-7.1,3.2-7.1,7.1
	C458.7,88.2,461.8,91.4,465.8,91.4z M465.8,89.9c-3,0-5.5-2.5-5.5-5.6c0-3.1,2.5-5.6,5.5-5.6c3,0,5.5,2.5,5.5,5.6
	C471.2,87.4,468.7,89.9,465.8,89.9z M278.7,95.3c-3.4-3.3-8-5.5-13.1-5.9l-1.6-0.1c-5,0-9.7,1.8-13.3,4.8c-3.6,3-6.1,7.4-6.4,12.4
	l0,1.3c0,5,2.1,9.6,5.5,12.9c3.4,3.3,8,5.5,13.1,5.9l1.6,0.1c5,0,9.7-1.8,13.3-4.8c3.6-3,6.1-7.4,6.4-12.4l0.1-1.3
	C284.3,103.2,282.1,98.6,278.7,95.3z M274.3,108.7c-0.2,2.3-1.4,4.4-3.2,5.7c-1.8,1.4-4.2,2.2-6.7,2.2c-3.4-0.2-5.7-1.2-7.4-2.8
	c-1.7-1.5-2.8-3.7-2.8-6c0.2-2.9,1.5-5,3.3-6.4c1.8-1.4,4.2-2.2,6.7-2.2c3.4,0.2,5.7,1.2,7.4,2.8c1.7,1.5,2.8,3.7,2.8,6L274.3,108.7
	z M322.8,97.7c-3.2-3.3-7.6-5.6-12.5-6.2c-0.9-0.1-1.8-0.2-2.7-0.2c-3.4,0-6.7,0.8-9.6,2.3l0.2-14l-10-0.1l-0.7,52l10,0.1l0.1-5.9
	c2.4,1.4,5.1,2.4,8.1,2.7c0.9,0.1,1.8,0.2,2.7,0.2c4.8,0,9.4-1.6,12.9-4.5c3.5-2.8,6.1-7,6.6-11.8c0.1-0.7,0.1-1.5,0.1-2.2
	C328,105.4,326,101,322.8,97.7z M318,111.2c-0.3,2.1-1.3,3.8-3,5.2c-1.7,1.4-4,2.2-6.6,2.2l-1.4-0.1c-2.7-0.3-5-1.6-6.6-3.2
	c-1.6-1.7-2.4-3.7-2.4-5.7c0.3-3,1.4-4.8,3.1-6.2c1.7-1.4,4-2.2,6.6-2.2c0.5,0,1,0,1.5,0.1c2.7,0.3,5,1.6,6.6,3.2
	c1.6,1.7,2.4,3.7,2.4,5.7L318,111.2z M375.2,76.7c0.1,2.9,2.7,5.1,5.9,5.1c3.2-0.1,5.7-2.5,5.6-5.4c-0.1-2.9-2.7-5.1-5.9-5.1
	C377.7,71.4,375.2,73.8,375.2,76.7z M365.3,88.6c-3.3-3.3-7.8-5.6-12.8-6.1c-0.7-0.1-1.5-0.1-2.2-0.1c-3.6,0-7.1,0.9-10.1,2.6
	L340,71l-10,0.1l0.5,52l10-0.1l-0.1-5.9c2.4,1.4,5.2,2.2,8.2,2.5c0.7,0.1,1.5,0.1,2.2,0.1c4.9,0,9.5-1.7,13.1-4.6
	c3.6-2.9,6.1-7.2,6.6-12.1c0.1-0.6,0.1-1.2,0.1-1.8C370.6,96.4,368.5,91.9,365.3,88.6z M360.6,102.1c-0.2,2.1-1.2,3.9-3,5.4
	c-1.7,1.4-4.1,2.3-6.7,2.3l-1.2-0.1c-2.7-0.3-5.1-1.5-6.7-3.1c-1.6-1.7-2.5-3.7-2.5-5.8c0.3-2.9,1.3-4.7,3-6.1
	c1.7-1.4,4.1-2.3,6.7-2.3l1.2,0.1c2.8,0.3,5.1,1.5,6.7,3.1c1.6,1.7,2.5,3.7,2.5,5.8L360.6,102.1z M374.9,118.4l0.9-33.2l10,0.3
	l-0.9,33.2L374.9,118.4z M419.8,83.5l0,18.6l-26.1-29.6l-0.1,45.9l10,0l0-19.6l26.1,29.6l0.1-44.9L419.8,83.5z M246.2,81.9
	c-0.4,0-5.5,0.2-11.1,3c-0.8,0.4-1.6,0.9-2.4,1.4l-0.2-5.8l-10,0.3l1.4,47.4l10-0.3l-0.7-23.1c0-3.7,0.8-5.8,1.9-7.4
	c1.6-2.4,4.4-3.9,7-4.7c1.3-0.4,2.5-0.6,3.3-0.8l1.1-0.1L246.2,81.9z M438.4,131.8l-3.9-6.5l8.2-5c0,0,3.5-1.8,1.5-5.9
	c-3.4-7.1-7.8-15.2-7.8-15.2s-3.9-8.4,2.7-12.4l12.5-7.7l3.6,6.6l-8.2,5.3c-1.7,1.4-2.7,2.8-1.7,4.8c2.6,4.8,7.7,15.2,7.7,15.2
	s5.6,8.6-1.7,12.8L438.4,131.8z"/>
<polyline fill="#005DA9" points="32.6,10 36.8,132.3 26.1,132.1 0,16.1 32.6,10 "/>
<path fill="#E27EB1" d="M38.7,3.7l1.5,27.8c0,0,30.2-1.9,30.7,16.1c0.5,18-24.4,20.2-24.4,20.2l0.7,15.4c0,0,27.3,0.2,27.8,18
	c0.5,17.8-30.7,22.9-30.7,22.9l-0.5,11.2c0,0,55.4-4.6,55.1-39.5c-0.2-24.4-22.4-25.8-22.4-25.8s20-9.7,19.5-30
	C95.5,20,82.6,3.7,38.7,3.7"/>
<polyline fill="#E27EB1" points="112.6,3.7 111.6,134.3 127.7,134.5 141.1,4.9 112.6,3.7 "/>
<path fill="#005DA9" d="M146.4,8.1l-2.7,29c0,0,23.1,4.6,22.2,20c-1,15.4-25.8,22.7-25.8,22.7l-2.2,15.6l24.1,36.3l13.4-2.2
	l-16.8-39.5c0,0,29.7-7.8,33.4-40.7C195.7,16.3,146.4,8.1,146.4,8.1"/>
</svg>
